<?xml version="1.0" standalone="no"?>
<!DOCTYPE svg PUBLIC "-//W3C//DTD SVG 20010904//EN"
 "http://www.w3.org/TR/2001/REC-SVG-20010904/DTD/svg10.dtd">
<svg version="1.0" xmlns="http://www.w3.org/2000/svg"
 width="98.000000pt" height="111.000000pt" viewBox="0 0 98.000000 111.000000"
 preserveAspectRatio="xMidYMid meet">

<g transform="translate(0.000000,111.000000) scale(0.100000,-0.100000)"
fill="#000000" stroke="none">
<path d="M722 904 c-24 -17 -30 -62 -10 -82 7 -7 24 -12 38 -12 33 0 50 17 50
51 0 24 -30 59 -50 59 -3 0 -16 -7 -28 -16z"/>
<path d="M160 851 c-17 -32 -11 -60 15 -77 52 -34 111 31 70 76 -23 26 -71 26
-85 1z"/>
<path d="M537 522 c-10 -10 -17 -23 -17 -29 0 -17 -40 -63 -56 -63 -9 0 -14
11 -14 31 0 46 -16 69 -49 69 -46 0 -64 -30 -59 -96 4 -49 10 -62 37 -86 26
-23 41 -28 82 -28 45 0 54 4 98 45 59 55 81 113 56 151 -19 29 -55 31 -78 6z"/>
</g>
</svg>
