<?xml version="1.0" encoding="UTF-8"?>
<!DOCTYPE svg PUBLIC "-//W3C//DTD SVG 1.1//EN" "http://www.w3.org/Graphics/SVG/1.1/DTD/svg11.dtd">
<svg xmlns="http://www.w3.org/2000/svg" version="1.1" width="512px" height="512px" style="shape-rendering:geometricPrecision; text-rendering:geometricPrecision; image-rendering:optimizeQuality; fill-rule:evenodd; clip-rule:evenodd" xmlns:xlink="http://www.w3.org/1999/xlink">
<g><path style="opacity:0.997" fill="#fe4b55" d="M 511.5,117.5 C 511.5,144.833 511.5,172.167 511.5,199.5C 405.166,199.333 298.833,199.5 192.5,200C 193.662,233.428 193.829,266.928 193,300.5C 192.281,304.145 191.781,307.812 191.5,311.5C 177.188,342.317 153.522,353.151 120.5,344C 106.134,337.137 96.1344,326.303 90.5,311.5C 89.6712,307.875 88.8378,304.208 88,300.5C 87.174,267.125 87.3407,233.792 88.5,200.5C 58.8408,199.5 29.1742,199.167 -0.5,199.5C -0.5,172.167 -0.5,144.833 -0.5,117.5C 3.75644,101.413 14.0898,91.5795 30.5,88C 180.5,87.3333 330.5,87.3333 480.5,88C 496.91,91.5795 507.244,101.413 511.5,117.5 Z"/></g>
<g><path style="opacity:1" fill="#ffd559" d="M 142.5,154.5 C 141.5,154.5 140.5,154.5 139.5,154.5C 139.5,153.5 139.5,152.5 139.5,151.5C 135.5,150.833 135.5,150.167 139.5,149.5C 140.167,145.5 140.833,145.5 141.5,149.5C 142.5,149.5 143.5,149.5 144.5,149.5C 144.169,151.322 143.502,152.989 142.5,154.5 Z"/></g>
<g><path style="opacity:1" fill="#484898" d="M 139.5,154.5 C 140.5,154.5 141.5,154.5 142.5,154.5C 143.833,155.167 144.833,156.167 145.5,157.5C 145.5,159.167 145.5,160.833 145.5,162.5C 144.833,162.5 144.167,162.5 143.5,162.5C 141.833,162.5 140.167,162.5 138.5,162.5C 137.391,162.443 136.391,162.11 135.5,161.5C 135.5,160.167 135.5,158.833 135.5,157.5C 136.833,156.5 138.167,155.5 139.5,154.5 Z"/></g>
<g><path style="opacity:1" fill="#fed958" d="M 135.5,157.5 C 135.5,158.833 135.5,160.167 135.5,161.5C 131.09,163.099 126.59,164.766 122,166.5C 122.034,171.186 122.534,175.852 123.5,180.5C 122.081,181.451 120.415,181.784 118.5,181.5C 118.047,177.471 117.38,173.471 116.5,169.5C 118.243,164.455 116.41,163.122 111,165.5C 108.465,165.765 106.632,166.931 105.5,169C 106.734,174.046 108.734,178.713 111.5,183C 113.81,183.497 116.143,183.663 118.5,183.5C 118.352,186.352 119.686,188.019 122.5,188.5C 134.658,188.421 146.824,188.421 159,188.5C 162.003,188.257 163.17,186.59 162.5,183.5C 165.247,183.813 167.914,183.48 170.5,182.5C 173.376,177.539 175.043,172.205 175.5,166.5C 171.833,165.833 168.167,165.167 164.5,164.5C 164.624,170.599 163.957,176.599 162.5,182.5C 160.107,181.647 158.774,179.981 158.5,177.5C 159.112,173.837 159.279,170.17 159,166.5C 154.603,164.776 150.103,163.443 145.5,162.5C 145.5,160.833 145.5,159.167 145.5,157.5C 156.322,157.832 166.988,159.332 177.5,162C 179.871,163.743 181.205,166.077 181.5,169C 178.938,176.913 176.605,184.746 174.5,192.5C 172.833,192.5 171.167,192.5 169.5,192.5C 169.167,195.5 170.5,196.833 173.5,196.5C 173.586,197.496 173.252,198.329 172.5,199C 151.169,199.5 129.836,199.667 108.5,199.5C 108.5,198.5 108.5,197.5 108.5,196.5C 111.694,196.824 112.694,195.658 111.5,193C 110.207,192.51 108.873,192.343 107.5,192.5C 107.148,189.486 105.815,186.986 103.5,185C 103.833,184 104.167,183 104.5,182C 103.472,178.779 102.306,175.612 101,172.5C 99.3359,164.155 102.836,159.988 111.5,160C 119.464,158.763 127.464,157.93 135.5,157.5 Z"/></g>
<g><path style="opacity:1" fill="#ffcd52" d="M 138.5,162.5 C 140.167,162.5 141.833,162.5 143.5,162.5C 143.334,169.175 143.5,175.842 144,182.5C 147.744,183.626 151.577,183.793 155.5,183C 156.869,181.281 157.869,179.448 158.5,177.5C 158.774,179.981 160.107,181.647 162.5,182.5C 162.5,182.833 162.5,183.167 162.5,183.5C 163.17,186.59 162.003,188.257 159,188.5C 146.824,188.421 134.658,188.421 122.5,188.5C 119.686,188.019 118.352,186.352 118.5,183.5C 118.5,182.833 118.5,182.167 118.5,181.5C 120.415,181.784 122.081,181.451 123.5,180.5C 127.873,183.587 132.707,184.254 138,182.5C 138.5,175.842 138.666,169.175 138.5,162.5 Z"/></g>
<g><path style="opacity:1" fill="#ff5355" d="M 162.5,183.5 C 162.5,183.167 162.5,182.833 162.5,182.5C 163.957,176.599 164.624,170.599 164.5,164.5C 168.167,165.167 171.833,165.833 175.5,166.5C 175.043,172.205 173.376,177.539 170.5,182.5C 167.914,183.48 165.247,183.813 162.5,183.5 Z"/></g>
<g><path style="opacity:1" fill="#ff5155" d="M 118.5,181.5 C 118.5,182.167 118.5,182.833 118.5,183.5C 116.143,183.663 113.81,183.497 111.5,183C 108.734,178.713 106.734,174.046 105.5,169C 106.632,166.931 108.465,165.765 111,165.5C 116.41,163.122 118.243,164.455 116.5,169.5C 117.38,173.471 118.047,177.471 118.5,181.5 Z"/></g>
<g><path style="opacity:1" fill="#ff4c55" d="M 143.5,162.5 C 144.167,162.5 144.833,162.5 145.5,162.5C 150.103,163.443 154.603,164.776 159,166.5C 159.279,170.17 159.112,173.837 158.5,177.5C 157.869,179.448 156.869,181.281 155.5,183C 151.577,183.793 147.744,183.626 144,182.5C 143.5,175.842 143.334,169.175 143.5,162.5 Z"/></g>
<g><path style="opacity:1" fill="#fe5455" d="M 135.5,161.5 C 136.391,162.11 137.391,162.443 138.5,162.5C 138.666,169.175 138.5,175.842 138,182.5C 132.707,184.254 127.873,183.587 123.5,180.5C 122.534,175.852 122.034,171.186 122,166.5C 126.59,164.766 131.09,163.099 135.5,161.5 Z"/></g>
<g><path style="opacity:1" fill="#524d96" d="M 107.5,192.5 C 108.873,192.343 110.207,192.51 111.5,193C 112.694,195.658 111.694,196.824 108.5,196.5C 106.481,195.462 106.147,194.128 107.5,192.5 Z"/></g>
<g><path style="opacity:1" fill="#ff5754" d="M 122.5,192.5 C 124.167,192.5 125.833,192.5 127.5,192.5C 127.5,193.833 127.5,195.167 127.5,196.5C 125.833,196.5 124.167,196.5 122.5,196.5C 122.5,195.167 122.5,193.833 122.5,192.5 Z"/></g>
<g><path style="opacity:1" fill="#515096" d="M 138.5,192.5 C 140.167,192.5 141.833,192.5 143.5,192.5C 143.299,196.35 141.466,197.35 138,195.5C 137.53,194.423 137.697,193.423 138.5,192.5 Z"/></g>
<g><path style="opacity:1" fill="#ff5655" d="M 153.5,192.5 C 155.977,192.051 157.977,192.717 159.5,194.5C 158.307,196.384 156.641,196.884 154.5,196C 153.663,194.989 153.33,193.822 153.5,192.5 Z"/></g>
<g><path style="opacity:1" fill="#594a94" d="M 174.5,192.5 C 175.954,194.263 175.62,195.597 173.5,196.5C 170.5,196.833 169.167,195.5 169.5,192.5C 171.167,192.5 172.833,192.5 174.5,192.5 Z"/></g>
<g><path style="opacity:0.998" fill="#41479b" d="M -0.5,199.5 C 29.1742,199.167 58.8408,199.5 88.5,200.5C 87.3407,233.792 87.174,267.125 88,300.5C 88.8378,304.208 89.6712,307.875 90.5,311.5C 60.1667,311.5 29.8333,311.5 -0.5,311.5C -0.5,274.167 -0.5,236.833 -0.5,199.5 Z"/></g>
<g><path style="opacity:0.998" fill="#41479a" d="M 511.5,199.5 C 511.5,236.833 511.5,274.167 511.5,311.5C 404.833,311.5 298.167,311.5 191.5,311.5C 191.781,307.812 192.281,304.145 193,300.5C 193.829,266.928 193.662,233.428 192.5,200C 298.833,199.5 405.166,199.333 511.5,199.5 Z"/></g>
<g><path style="opacity:1" fill="#f5f1f0" d="M 160.5,207.5 C 159.227,209.713 158.227,212.046 157.5,214.5C 156.326,215.514 155.66,216.847 155.5,218.5C 154.903,218.735 154.57,219.235 154.5,220C 154.978,221.303 155.645,222.469 156.5,223.5C 146.167,223.5 135.833,223.5 125.5,223.5C 127.401,222.065 127.734,220.398 126.5,218.5C 124.738,214.638 122.738,210.972 120.5,207.5C 120.866,206.305 121.699,205.639 123,205.5C 127.151,206.386 131.318,207.22 135.5,208C 137.207,211.248 139.04,214.415 141,217.5C 142.579,214.006 144.413,210.673 146.5,207.5C 149.936,206.566 153.436,205.899 157,205.5C 158.681,205.608 159.848,206.275 160.5,207.5 Z"/></g>
<g><path style="opacity:1" fill="#fb9398" d="M 93.5,231.5 C 93.1695,251.674 93.5029,271.674 94.5,291.5C 94.44,292.043 94.1067,292.376 93.5,292.5C 92.172,272.004 92.172,251.671 93.5,231.5 Z"/></g>
<g><path style="opacity:1" fill="#f5f1f1" d="M 119.5,224.5 C 119.333,238.171 119.5,251.837 120,265.5C 126.522,281.015 137.355,285.181 152.5,278C 155.568,275.718 158.068,272.884 160,269.5C 161.434,254.558 161.934,239.558 161.5,224.5C 166.178,223.078 170.345,220.744 174,217.5C 174.562,215.134 174.396,212.801 173.5,210.5C 173.5,208.5 174.5,207.5 176.5,207.5C 182.38,213.251 186.214,220.251 188,228.5C 188.833,249.841 188.666,271.174 187.5,292.5C 178.169,288.005 170.502,281.505 164.5,273C 162.956,271.813 161.289,271.48 159.5,272C 161.668,277.003 163.334,282.17 164.5,287.5C 162.585,287.216 160.919,287.549 159.5,288.5C 157.425,288.698 155.425,288.865 153.5,289C 151.548,286.926 149.715,284.759 148,282.5C 147.125,283.873 146.625,285.373 146.5,287C 150.733,301.866 155.067,316.699 159.5,331.5C 147.528,338.998 135.361,339.331 123,332.5C 126.32,317.191 130.487,302.024 135.5,287C 135.22,285.605 134.553,284.438 133.5,283.5C 131.142,285.529 128.808,287.529 126.5,289.5C 125.151,289.154 123.817,288.821 122.5,288.5C 120.883,287.962 119.216,287.629 117.5,287.5C 118.627,282.118 119.961,276.784 121.5,271.5C 119.692,271.491 118.025,271.991 116.5,273C 110.788,281.222 103.454,287.389 94.5,291.5C 93.5029,271.674 93.1695,251.674 93.5,231.5C 94.0054,221.774 97.8387,213.774 105,207.5C 106.833,208 108,209.167 108.5,211C 107.227,213.516 107.227,216.016 108.5,218.5C 112.034,220.766 115.7,222.766 119.5,224.5 Z"/></g>
<g><path style="opacity:1" fill="#b05458" d="M 125.5,223.5 C 135.833,223.5 146.167,223.5 156.5,223.5C 158.415,223.216 160.081,223.549 161.5,224.5C 161.934,239.558 161.434,254.558 160,269.5C 158.068,272.884 155.568,275.718 152.5,278C 137.355,285.181 126.522,281.015 120,265.5C 119.5,251.837 119.333,238.171 119.5,224.5C 121.265,223.539 123.265,223.205 125.5,223.5 Z"/></g>
<g><path style="opacity:1" fill="#fd4b54" d="M 159.5,256.5 C 160.04,267.268 155.373,274.602 145.5,278.5C 145.5,271.167 145.5,263.833 145.5,256.5C 150.167,256.5 154.833,256.5 159.5,256.5 Z"/></g>
<g><path style="opacity:1" fill="#fc767e" d="M 159.5,255.5 C 159.5,255.833 159.5,256.167 159.5,256.5C 154.833,256.5 150.167,256.5 145.5,256.5C 145.5,263.833 145.5,271.167 145.5,278.5C 145.167,278.5 144.833,278.5 144.5,278.5C 144.5,270.833 144.5,263.167 144.5,255.5C 149.5,255.5 154.5,255.5 159.5,255.5 Z"/></g>
<g><path style="opacity:1" fill="#fe4b54" d="M 136.5,256.5 C 136.5,263.833 136.5,271.167 136.5,278.5C 125.79,275.091 121.123,267.758 122.5,256.5C 127.167,256.5 131.833,256.5 136.5,256.5 Z"/></g>
<g><path style="opacity:1" fill="#fb4c56" d="M 144.5,225.5 C 149.5,225.5 154.5,225.5 159.5,225.5C 159.5,232.833 159.5,240.167 159.5,247.5C 154.5,247.5 149.5,247.5 144.5,247.5C 144.5,240.167 144.5,232.833 144.5,225.5 Z"/></g>
<g><path style="opacity:1" fill="#f5eeef" d="M 144.5,225.5 C 144.5,232.833 144.5,240.167 144.5,247.5C 149.5,247.5 154.5,247.5 159.5,247.5C 159.5,250.167 159.5,252.833 159.5,255.5C 154.5,255.5 149.5,255.5 144.5,255.5C 144.5,263.167 144.5,270.833 144.5,278.5C 141.833,278.5 139.167,278.5 136.5,278.5C 136.5,271.167 136.5,263.833 136.5,256.5C 132.03,255.514 127.363,255.181 122.5,255.5C 122.5,253.167 122.5,250.833 122.5,248.5C 127.363,248.819 132.03,248.486 136.5,247.5C 136.5,240.5 136.5,233.5 136.5,226.5C 138.948,225.527 141.615,225.194 144.5,225.5 Z"/></g>
<g><path style="opacity:1" fill="#fe4b54" d="M 136.5,226.5 C 136.5,233.5 136.5,240.5 136.5,247.5C 131.833,247.5 127.167,247.5 122.5,247.5C 122.5,240.5 122.5,233.5 122.5,226.5C 127.167,226.5 131.833,226.5 136.5,226.5 Z"/></g>
<g><path style="opacity:1" fill="#ffb25d" d="M 157.5,214.5 C 158.348,216.093 159.681,217.26 161.5,218C 159.527,218.495 157.527,218.662 155.5,218.5C 155.66,216.847 156.326,215.514 157.5,214.5 Z"/></g>
<g><path style="opacity:1" fill="#fedf5d" d="M 160.5,207.5 C 163.518,207.335 166.518,207.502 169.5,208C 166.834,212.502 162.834,214.668 157.5,214.5C 158.227,212.046 159.227,209.713 160.5,207.5 Z"/></g>
<g><path style="opacity:1" fill="#ffd75f" d="M 120.5,207.5 C 122.738,210.972 124.738,214.638 126.5,218.5C 124.473,218.662 122.473,218.495 120.5,218C 121.5,217.167 122.5,216.333 123.5,215.5C 118.65,214.915 114.984,212.581 112.5,208.5C 115.086,207.52 117.753,207.187 120.5,207.5 Z"/></g>
<g><path style="opacity:1" fill="#ffdc5a" d="M 117.5,287.5 C 119.216,287.629 120.883,287.962 122.5,288.5C 121.099,291.634 119.432,294.634 117.5,297.5C 118.716,298.096 120.049,298.263 121.5,298C 122.747,299.494 122.747,300.994 121.5,302.5C 118.828,303.501 116.161,304.501 113.5,305.5C 111.551,310.01 110.218,314.677 109.5,319.5C 108.07,319.579 106.736,319.246 105.5,318.5C 104.815,316.219 104.649,313.886 105,311.5C 103.333,312.833 101.667,314.167 100,315.5C 98.4516,314.086 97.785,312.42 98,310.5C 99.9252,309.12 101.759,307.62 103.5,306C 101.866,305.506 100.199,305.34 98.5,305.5C 98.5,303.833 98.5,302.167 98.5,300.5C 102.555,300.824 106.555,300.491 110.5,299.5C 112.86,295.437 115.193,291.437 117.5,287.5 Z"/></g>
<g><path style="opacity:1" fill="#ffdc5a" d="M 164.5,287.5 C 166.441,291.882 168.774,296.049 171.5,300C 175.152,300.499 178.818,300.665 182.5,300.5C 182.5,302.167 182.5,303.833 182.5,305.5C 181.127,305.343 179.793,305.51 178.5,306C 180.376,308.046 182.376,309.879 184.5,311.5C 181.981,315.352 179.314,315.352 176.5,311.5C 176.167,311.833 175.833,312.167 175.5,312.5C 176.747,314.323 177.414,316.323 177.5,318.5C 175.856,318.286 174.356,318.62 173,319.5C 171.136,314.909 169.47,310.243 168,305.5C 165.075,304.249 162.075,303.249 159,302.5C 158.508,301.451 158.674,300.451 159.5,299.5C 161.078,298.702 162.744,298.202 164.5,298C 162.171,295.174 160.504,292.008 159.5,288.5C 160.919,287.549 162.585,287.216 164.5,287.5 Z"/></g>
<g><path style="opacity:0.997" fill="#f5f4f4" d="M -0.5,311.5 C 29.8333,311.5 60.1667,311.5 90.5,311.5C 96.1344,326.303 106.134,337.137 120.5,344C 153.522,353.151 177.188,342.317 191.5,311.5C 298.167,311.5 404.833,311.5 511.5,311.5C 511.5,338.833 511.5,366.167 511.5,393.5C 507.27,409.56 496.936,419.393 480.5,423C 330.5,423.667 180.5,423.667 30.5,423C 14.0636,419.393 3.73024,409.56 -0.5,393.5C -0.5,366.167 -0.5,338.833 -0.5,311.5 Z"/></g>
</svg>
